#!OML:ASF H:\ManfredETheater\Project 1\Capture day 1\Session 1\subject.ASF
:FULLY-SPECIFIED
:DEGREES
256
root 0.709648 17.785 -25.8029 -169.353 12.8808 -180.146
lowerback 8.16569 0.669993 0.369621
upperback -2.05497 1.13667 2.29517
thorax -6.78465 0.616713 2.0389
lowerneck -16.2314 1.92736 1.13786
upperneck 18.9893 4.20296 -6.27256
head 8.78656 1.56659 -1.77134
rclavicle 1.37161e-014 -2.3059e-014
rhumerus -38.7553 3.0453 -87.8786
rradius 58.5783
rwrist -0.682886
rhand -24.8097 -7.89122
rfingers 7.12502
rthumb 1.69539 -37.8642
lclavicle 1.37161e-014 -2.3059e-014
lhumerus -40.2156 5.59373 83.9613
lradius 49.1931
lwrist -6.11945
lhand -13.8329 3.58508
lfingers 7.12502
lthumb 12.2902 33.2039
rfemur -9.8093 -2.13124 18.9534
rtibia 26.9587
rfoot -18.2628 -22.4925
rtoes -31.6254
lfemur -31.3103 -6.4537 -16.9872
ltibia 45.3391
lfoot -21.5197 -2.67846
ltoes 4.08338
257
root 0.706174 17.7652 -25.8807 -169.134 12.5549 -180.102
lowerback 8.19197 0.695526 0.433608
upperback -2.07891 1.18101 2.30655
thorax -6.82571 0.636939 2.00837
lowerneck -16.2518 1.84282 1.04969
upperneck 18.8461 4.07576 -6.21651
head 8.73315 1.50507 -1.75311
rclavicle -2.32578e-014 2.70347e-014
rhumerus -38.8209 3.62197 -88.312
rradius 58.8864
rwrist -0.692599
rhand -24.7959 -7.90537
rfingers 7.12502
rthumb 1.70873 -37.8783
lclavicle -2.32578e-014 2.70347e-014
lhumerus -40.3472 5.46678 84.1027
lradius 49.0743
lwrist -6.20502
lhand -13.8321 3.40683
lfingers 7.12502
lthumb 12.291 33.0256
rfemur -9.72661 -2.25335 19.0079
rtibia 26.9923
rfoot -18.4677 -22.8249
rtoes -31.5959
lfemur -31.5402 -6.42746 -17.0345
ltibia 45.8093
lfoot -21.9254 -2.81277
ltoes 4.17489
258
root 0.702309 17.7441 -25.9612 -168.906 12.221 -180.051
lowerback 8.21264 0.720173 0.50624
upperback -2.10467 1.22535 2.31885
thorax -6.86525 0.656863 1.97393
lowerneck -16.2771 1.75998 0.966919
upperneck 18.6966 3.94887 -6.16064
head 8.67882 1.44385 -1.73573
rclavicle 3.12092e-014 -3.4191e-014
rhumerus -38.883 4.18726 -88.732
rradius 59.1992
rwrist -0.701078
rhand -24.7676 -7.94786
rfingers 7.12502
rthumb 1.73597 -37.9205
lclavicle 3.12092e-014 -3.4191e-014
lhumerus -40.5023 5.34194 84.243
lradius 48.9907
lwrist -6.29037
lhand -13.8293 3.2415
lfingers 7.12502
lthumb 12.2937 32.8601
rfemur -9.64333 -2.39491 19.0693
rtibia 27.029
rfoot -18.6717 -23.1468
rtoes -31.5744
lfemur -31.7837 -6.39244 -17.0811
ltibia 46.3018
lfoot -22.321 -2.95118
ltoes 4.32349
259
root 0.698265 17.7218 -26.0442 -168.671 11.8814 -179.988
lowerback 8.22505 0.745565 0.589378
upperback -2.12826 1.27206 2.33332
thorax -6.89758 0.677597 1.93554
lowerneck -16.3054 1.67615 0.893466
upperneck 18.5335 3.81809 -6.11059
head 8.62088 1.38072 -1.72227
rclavicle 5.96354e-016 3.18055e-015
rhumerus -38.9337 4.74239 -89.1388
rradius 59.5085
rwrist -0.712078
rhand -24.7388 -8.007
rfingers 7.12502
rthumb 1.76385 -37.9795
lclavicle 5.96354e-016 3.18055e-015
lhumerus -40.6719 5.21312 84.3855
lradius 48.9433
lwrist -6.36567
lhand -13.8248 3.09527
lfingers 7.12502
lthumb 12.298 32.7136
rfemur -9.55701 -2.53573 19.1449
rtibia 27.0659
rfoot -18.8671 -23.4706
rtoes -31.5616
lfemur -32.039 -6.35036 -17.1194
ltibia 46.8126
lfoot -22.7026 -3.09427
ltoes 4.54286
260
root 0.693734 17.6982 -26.13 -168.427 11.5287 -179.931
lowerback 8.23136 0.767807 0.669282
upperback -2.1543 1.31408 2.34639
thorax -6.92882 0.696094 1.8982
lowerneck -16.3431 1.59356 0.822848
upperneck 18.3679 3.68771 -6.05891
head 8.56406 1.31782 -1.7086
rclavicle 1.78906e-015 6.36111e-015
rhumerus -38.9818 5.28706 -89.5288
rradius 59.8222
rwrist -0.710836
rhand -24.6991 -8.07257
rfingers 7.12502
rthumb 1.80215 -38.0447
lclavicle 1.78906e-015 6.36111e-015
lhumerus -40.865 5.08321 84.5315
lradius 48.9414
lwrist -6.4233
lhand -13.8205 2.96715
lfingers 7.12502
lthumb 12.3022 32.5853
rfemur -9.47027 -2.70084 19.2142
rtibia 27.1027
rfoot -19.0529 -23.783
rtoes -31.5595
lfemur -32.3062 -6.31532 -17.1683
ltibia 47.3347
lfoot -23.0693 -3.23758
ltoes 4.81596
261
root 0.688767 17.6733 -26.2186 -168.181 11.1636 -179.871
lowerback 8.23195 0.789733 0.756248
upperback -2.18146 1.35656 2.35965
thorax -6.95773 0.714549 1.85705
lowerneck -16.376 1.50771 0.752965
upperneck 18.1964 3.55235 -6.00626
head 8.50442 1.25288 -1.69528
rclavicle 9.93923e-015 -2.06736e-014
rhumerus -39.0341 5.81327 -89.8984
rradius 60.1359
rwrist -0.709209
rhand -24.6612 -8.1034
rfingers 7.12502
rthumb 1.83876 -38.0752
lclavicle 9.93923e-015 -2.06736e-014
lhumerus -41.0797 4.94128 84.686
lradius 48.9843
lwrist -6.45696
lhand -13.8342 2.84045
lfingers 7.12502
lthumb 12.2889 32.4594
rfemur -9.37489 -2.88041 19.287
rtibia 27.139
rfoot -19.2272 -24.0909
rtoes -31.5609
lfemur -32.5741 -6.29176 -17.2169
ltibia 47.8615
lfoot -23.4262 -3.37501
ltoes 5.10752
262
root 0.683277 17.6473 -26.3105 -167.935 10.789 -179.82
lowerback 8.22077 0.809214 0.837935
upperback -2.2078 1.39468 2.37059
thorax -6.97885 0.730955 1.81716
lowerneck -16.4084 1.4194 0.682475
upperneck 18.023 3.41263 -5.94784
head 8.44405 1.1864 -1.6804
rclavicle 7.55382e-015 1.19271e-014
rhumerus -39.1022 6.3319 -90.2528
rradius 60.4691
rwrist -0.699236
rhand -24.6233 -8.15127
rfingers 7.12502
rthumb 1.87538 -38.1228
lclavicle 7.55382e-015 1.19271e-014
lhumerus -41.3158 4.79333 84.8467
lradius 49.0713
lwrist -6.45484
lhand -13.8703 2.70573
lfingers 7.12502
lthumb 12.2541 32.3267
rfemur -9.26837 -3.0756 19.3483
rtibia 27.1732
rfoot -19.3911 -24.3914
rtoes -31.559
lfemur -32.8322 -6.29019 -17.2765
ltibia 48.3859
lfoot -23.7847 -3.49414
ltoes 5.37883
263
root 0.677471 17.6199 -26.4056 -167.695 10.409 -179.784
lowerback 8.20683 0.828881 0.902346
upperback -2.23203 1.43051 2.37798
thorax -6.99632 0.746733 1.78366
lowerneck -16.4472 1.32784 0.607193
upperneck 17.8541 3.26787 -5.87814
head 8.38612 1.11806 -1.6615
rclavicle 3.1408e-014 -3.49861e-014
rhumerus -39.1816 6.83548 -90.5867
rradius 60.8047
rwrist -0.687785
rhand -24.5731 -8.16673
rfingers 7.12502
rthumb 1.92384 -38.1378
lclavicle 3.1408e-014 -3.49861e-014
lhumerus -41.5668 4.63554 85.015
lradius 49.1964
lwrist -6.41772
lhand -13.9461 2.54635
lfingers 7.12502
lthumb 12.1811 32.1717
rfemur -9.1436 -3.25836 19.3943
rtibia 27.2026
rfoot -19.5388 -24.7118
rtoes -31.5436
lfemur -33.069 -6.31398 -17.3522
ltibia 48.9019
lfoot -24.1555 -3.58982
ltoes 5.59489
